<svg width="13" height="20" viewBox="0 0 13 20" fill="none" xmlns="http://www.w3.org/2000/svg">
<path d="M10.625 0H1.875C0.8398 0 0 0.84 0 1.875V18.125C0 19.16 0.8398 20 1.875 20H10.625C11.6602 20 12.5 19.16 12.5 18.125V1.875C12.5 0.84 11.6602 0 10.625 0ZM6.25 18.75C5.5586 18.75 5 18.191 5 17.5C5 16.809 5.5586 16.25 6.25 16.25C6.9414 16.25 7.5 16.809 7.5 17.5C7.5 18.191 6.9414 18.75 6.25 18.75ZM10.625 14.531C10.625 14.789 10.4141 15 10.1562 15H2.3438C2.0859 15 1.875 14.789 1.875 14.531V2.34399C1.875 2.08599 2.0859 1.875 2.3438 1.875H10.1562C10.4141 1.875 10.625 2.08599 10.625 2.34399V14.531Z" fill="#161826"/>
</svg>
