<svg width="22" height="24" viewBox="0 0 22 24" fill="none" xmlns="http://www.w3.org/2000/svg">
<mask id="mask0_1_332" style="mask-type:luminance" maskUnits="userSpaceOnUse" x="0" y="0" width="22" height="24">
<path d="M22 0H0V24H22V0Z" fill="white"/>
</mask>
<g mask="url(#mask0_1_332)">
<path d="M21.2143 19.5H0.7857C0.5773 19.5 0.3775 19.579 0.2301 19.7197C0.0827997 19.8603 0 20.0511 0 20.25V21.75C0 21.9489 0.0827997 22.1397 0.2301 22.2803C0.3775 22.421 0.5773 22.5 0.7857 22.5H21.2143C21.4227 22.5 21.6225 22.421 21.7699 22.2803C21.9172 22.1397 22 21.9489 22 21.75V20.25C22 20.0511 21.9172 19.8603 21.7699 19.7197C21.6225 19.579 21.4227 19.5 21.2143 19.5ZM21.2143 13.5H0.7857C0.5773 13.5 0.3775 13.579 0.2301 13.7197C0.0827997 13.8603 0 14.0511 0 14.25V15.75C0 15.9489 0.0827997 16.1397 0.2301 16.2803C0.3775 16.421 0.5773 16.5 0.7857 16.5H21.2143C21.4227 16.5 21.6225 16.421 21.7699 16.2803C21.9172 16.1397 22 15.9489 22 15.75V14.25C22 14.0511 21.9172 13.8603 21.7699 13.7197C21.6225 13.579 21.4227 13.5 21.2143 13.5ZM21.2143 7.5H0.7857C0.5773 7.5 0.3775 7.579 0.2301 7.7197C0.0827997 7.8603 0 8.0511 0 8.25V9.75C0 9.9489 0.0827997 10.1397 0.2301 10.2803C0.3775 10.421 0.5773 10.5 0.7857 10.5H21.2143C21.4227 10.5 21.6225 10.421 21.7699 10.2803C21.9172 10.1397 22 9.9489 22 9.75V8.25C22 8.0511 21.9172 7.8603 21.7699 7.7197C21.6225 7.579 21.4227 7.5 21.2143 7.5ZM21.2143 1.5H0.7857C0.5773 1.5 0.3775 1.579 0.2301 1.7197C0.0827997 1.8603 0 2.0511 0 2.25V3.75C0 3.9489 0.0827997 4.1397 0.2301 4.2803C0.3775 4.421 0.5773 4.5 0.7857 4.5H21.2143C21.4227 4.5 21.6225 4.421 21.7699 4.2803C21.9172 4.1397 22 3.9489 22 3.75V2.25C22 2.0511 21.9172 1.8603 21.7699 1.7197C21.6225 1.579 21.4227 1.5 21.2143 1.5Z" fill="black"/>
</g>
</svg>
