<svg width="21" height="11" viewBox="0 0 21 11" fill="none" xmlns="http://www.w3.org/2000/svg">
<path d="M15.236 0.817993H5.302C4.483 0.817993 3.677 1.02 2.955 1.407C2.234 1.794 1.619 2.353 1.166 3.035C0.711998 3.717 0.435 4.5 0.358 5.315C0.28 6.131 0.406005 6.952 0.723005 7.707C1.04001 8.462 1.539 9.127 2.175 9.642C2.811 10.158 3.565 10.508 4.369 10.662C5.173 10.815 6.00299 10.768 6.78399 10.523C7.56599 10.279 8.27501 9.84499 8.84801 9.25999H11.688C12.261 9.84499 12.97 10.279 13.751 10.523C14.533 10.768 15.362 10.815 16.166 10.662C16.971 10.508 17.724 10.158 18.36 9.64301C18.997 9.12701 19.495 8.46299 19.813 7.70799C20.13 6.95299 20.255 6.132 20.178 5.317C20.101 4.502 19.824 3.718 19.371 3.036C18.918 2.354 18.304 1.795 17.582 1.408C16.861 1.021 16.055 0.817993 15.236 0.817993ZM8.033 6.157C8.033 6.255 7.99399 6.35 7.92399 6.42C7.85399 6.49 7.75999 6.52901 7.66099 6.52901H6.04699V8.14301C6.04699 8.24201 6.008 8.33601 5.938 8.40601C5.868 8.47601 5.77299 8.515 5.67399 8.515H4.92999C4.83099 8.515 4.736 8.47601 4.666 8.40601C4.596 8.33601 4.557 8.24201 4.557 8.14301V6.52901H2.94299C2.84399 6.52901 2.74999 6.49 2.67999 6.42C2.60999 6.35 2.571 6.255 2.571 6.157V5.412C2.571 5.313 2.60999 5.218 2.67999 5.14799C2.74999 5.07799 2.84399 5.039 2.94299 5.039H4.557V3.425C4.557 3.327 4.596 3.232 4.666 3.162C4.736 3.092 4.83099 3.05299 4.92999 3.05299H5.67399C5.77299 3.05299 5.868 3.092 5.938 3.162C6.008 3.232 6.04699 3.327 6.04699 3.425V5.039H7.66099C7.75999 5.039 7.85399 5.07799 7.92399 5.14799C7.99399 5.218 8.033 5.313 8.033 5.412V6.157ZM14.737 8.515C14.492 8.515 14.252 8.443 14.048 8.306C13.843 8.17 13.684 7.97599 13.59 7.74899C13.496 7.52199 13.472 7.272 13.52 7.032C13.568 6.791 13.686 6.57 13.859 6.396C14.033 6.222 14.254 6.104 14.495 6.056C14.736 6.008 14.986 6.033 15.212 6.127C15.439 6.221 15.633 6.38 15.77 6.584C15.906 6.788 15.979 7.028 15.979 7.274C15.979 7.603 15.848 7.91899 15.615 8.15199C15.382 8.38499 15.067 8.515 14.737 8.515ZM16.724 5.536C16.478 5.536 16.238 5.463 16.034 5.327C15.83 5.19 15.671 4.996 15.577 4.769C15.483 4.543 15.458 4.293 15.506 4.052C15.554 3.811 15.672 3.59 15.846 3.416C16.019 3.243 16.241 3.125 16.481 3.077C16.722 3.029 16.972 3.053 17.199 3.147C17.426 3.241 17.619 3.4 17.756 3.605C17.892 3.809 17.965 4.04901 17.965 4.29401C17.965 4.62401 17.834 4.939 17.601 5.172C17.369 5.405 17.053 5.536 16.724 5.536Z" fill="#161826"/>
</svg>
