<svg width="20" height="18" viewBox="0 0 20 18" fill="none" xmlns="http://www.w3.org/2000/svg">
<path d="M9.97832 0C4.52352 0 0.108215 4.414 0.108215 9.87V11.721C0.108215 11.95 0.172012 12.175 0.292412 12.369C0.412912 12.564 0.585215 12.722 0.790215 12.824L1.34472 13.102C1.42222 15.418 3.32452 17.273 5.66012 17.273H6.58542C7.09652 17.273 7.51082 16.858 7.51082 16.347V9.562C7.51082 9.051 7.09652 8.636 6.58542 8.636H5.66012C4.45172 8.636 3.35951 9.133 2.57571 9.933V9.87C2.57571 5.788 5.89652 2.468 9.97832 2.468C14.06 2.468 17.381 5.788 17.381 9.87V9.933C16.597 9.133 15.505 8.636 14.296 8.636H13.371C12.86 8.636 12.446 9.051 12.446 9.562V16.347C12.446 16.858 12.86 17.273 13.371 17.273H14.296C16.632 17.273 18.534 15.418 18.612 13.102L19.166 12.824C19.371 12.722 19.544 12.564 19.664 12.369C19.785 12.175 19.848 11.95 19.848 11.721V9.87C19.848 4.415 15.434 0 9.97832 0Z" fill="#161826"/>
</svg>
