<svg width="19" height="23" viewBox="0 0 19 23" fill="none" xmlns="http://www.w3.org/2000/svg">
<path d="M15.366 11.776C15.356 9.984 16.167 8.63199 17.808 7.63599C16.89 6.32199 15.503 5.60001 13.672 5.45801C11.938 5.32101 10.044 6.46899 9.351 6.46899C8.618 6.46899 6.938 5.50702 5.62 5.50702C2.896 5.55102 0 7.67999 0 12.011C0 13.29 0.234402 14.612 0.703102 15.976C1.328 17.768 3.584 22.162 5.937 22.089C7.168 22.06 8.037 21.215 9.639 21.215C11.191 21.215 11.997 22.089 13.369 22.089C15.742 22.055 17.783 18.061 18.379 16.264C15.195 14.765 15.366 11.869 15.366 11.776ZM12.603 3.75897C13.936 2.17697 13.813 0.735994 13.774 0.218994C12.598 0.286994 11.235 1.01997 10.459 1.92297C9.604 2.88997 9.102 4.08602 9.209 5.43402C10.483 5.53102 11.646 4.87697 12.603 3.75897Z" fill="black"/>
</svg>
