<svg width="17" height="15" viewBox="0 0 17 15" fill="none" xmlns="http://www.w3.org/2000/svg">
<path d="M14.843 2.149C14.477 1.785 14.042 1.496 13.563 1.299C13.084 1.101 12.57 1 12.052 1C11.533 1 11.02 1.101 10.541 1.299C10.062 1.496 9.62701 1.785 9.26001 2.149L8.5 2.905L7.73901 2.149C6.99901 1.414 5.995 1 4.948 1C3.901 1 2.89701 1.414 2.15601 2.149C1.41601 2.885 1 3.883 1 4.923C1 5.963 1.41601 6.96101 2.15601 7.69701L2.91699 8.453L8.5 14L14.083 8.453L14.843 7.69701C15.21 7.33301 15.501 6.9 15.699 6.424C15.898 5.948 16 5.438 16 4.923C16 4.408 15.898 3.898 15.699 3.422C15.501 2.946 15.21 2.513 14.843 2.149Z" stroke="#545589" stroke-width="2" stroke-linecap="round" stroke-linejoin="round"/>
</svg>
