<svg width="21" height="15" viewBox="0 0 21 15" fill="none" xmlns="http://www.w3.org/2000/svg">
<path d="M17.607 5.179H17.089L13.569 0.776993C13.374 0.534993 13.128 0.338995 12.848 0.203995C12.568 0.0699947 12.262 0 11.951 0H5.02699C4.17999 0 3.419 0.516002 3.104 1.302L1.554 5.252C0.662001 5.483 0 6.286 0 7.25V10.875C0 11.161 0.232005 11.393 0.518005 11.393H2.071C2.071 13.109 3.463 14.5 5.179 14.5C6.895 14.5 8.286 13.109 8.286 11.393H12.429C12.429 13.109 13.82 14.5 15.536 14.5C17.252 14.5 18.643 13.109 18.643 11.393H20.196C20.483 11.393 20.714 11.161 20.714 10.875V8.286C20.714 6.57 19.323 5.179 17.607 5.179ZM5.179 12.946C4.322 12.946 3.625 12.25 3.625 11.393C3.625 10.536 4.322 9.839 5.179 9.839C6.035 9.839 6.73199 10.536 6.73199 11.393C6.73199 12.25 6.035 12.946 5.179 12.946ZM7.509 5.179H3.785L5.02699 2.071H7.509V5.179ZM9.062 5.179V2.071H11.951L14.437 5.179H9.062ZM15.536 12.946C14.679 12.946 13.982 12.25 13.982 11.393C13.982 10.536 14.679 9.839 15.536 9.839C16.392 9.839 17.089 10.536 17.089 11.393C17.089 12.25 16.392 12.946 15.536 12.946Z" fill="#161826"/>
</svg>
