<svg width="22" height="22" viewBox="0 0 22 22" fill="none" xmlns="http://www.w3.org/2000/svg">
<path d="M11 21C16.5228 21 21 16.523 21 11C21 5.477 16.5228 1 11 1C5.4772 1 1 5.477 1 11C1 16.523 5.4772 21 11 21Z" stroke="#040402" stroke-width="2" stroke-linecap="round" stroke-linejoin="round"/>
<path d="M8.09 8.00001C8.3251 7.33201 8.7891 6.76801 9.3999 6.40901C10.0107 6.05001 10.7289 5.91901 11.4271 6.03901C12.1254 6.15901 12.7588 6.52204 13.215 7.06404C13.6713 7.60604 13.921 8.29201 13.92 9.00001C13.92 11 10.92 12 10.92 12" stroke="#040402" stroke-width="2" stroke-linecap="round" stroke-linejoin="round"/>
<path d="M11 16H11.01" stroke="#040402" stroke-width="2" stroke-linecap="round" stroke-linejoin="round"/>
</svg>
