<svg width="16" height="18" viewBox="0 0 16 18" fill="none" xmlns="http://www.w3.org/2000/svg">
<path d="M12.522 5.26044C13.6986 5.26044 14.6525 4.30661 14.6525 3.13C14.6525 1.9534 13.6986 0.999573 12.522 0.999573C11.3454 0.999573 10.3916 1.9534 10.3916 3.13C10.3916 4.30661 11.3454 5.26044 12.522 5.26044Z" stroke="#545589" stroke-width="2"/>
<path d="M12.522 17.0004C13.6986 17.0004 14.6525 16.0466 14.6525 14.87C14.6525 13.6934 13.6986 12.7396 12.522 12.7396C11.3454 12.7396 10.3916 13.6934 10.3916 14.87C10.3916 16.0466 11.3454 17.0004 12.522 17.0004Z" stroke="#545589" stroke-width="2"/>
<path d="M3.13 10.7394C4.30661 10.7394 5.26044 9.78561 5.26044 8.60901C5.26044 7.4324 4.30661 6.47858 3.13 6.47858C1.9534 6.47858 0.999573 7.4324 0.999573 8.60901C0.999573 9.78561 1.9534 10.7394 3.13 10.7394Z" stroke="#545589" stroke-width="2"/>
<path d="M10.401 4.759L5.22803 8.01599" stroke="#545589" stroke-width="2"/>
<path d="M10.118 13.494L4.94501 10.238" stroke="#545589" stroke-width="2"/>
</svg>
