<svg width="22" height="17" viewBox="0 0 22 17" fill="none" xmlns="http://www.w3.org/2000/svg">
<path d="M0.433014 8.5V12.75C0.433014 13.338 0.906995 13.812 1.495 13.812H2.55801V7.438H1.495C0.906995 7.438 0.433014 7.912 0.433014 8.5ZM15.839 3.188H12.12V1.062C12.12 0.474996 11.645 0 11.058 0C10.47 0 9.995 0.474996 9.995 1.062V3.188H6.276C4.809 3.188 3.62 4.37599 3.62 5.84399V14.875C3.62 16.047 4.573 17 5.745 17H16.37C17.542 17 18.495 16.047 18.495 14.875V5.84399C18.495 4.37599 17.306 3.188 15.839 3.188ZM8.93301 13.812H6.80801V12.75H8.93301V13.812ZM7.87 9.828C7.13599 9.828 6.54199 9.234 6.54199 8.5C6.54199 7.766 7.13599 7.172 7.87 7.172C8.604 7.172 9.198 7.766 9.198 8.5C9.198 9.234 8.604 9.828 7.87 9.828ZM12.12 13.812H9.995V12.75H12.12V13.812ZM15.308 13.812H13.183V12.75H15.308V13.812ZM14.245 9.828C13.511 9.828 12.917 9.234 12.917 8.5C12.917 7.766 13.511 7.172 14.245 7.172C14.979 7.172 15.573 7.766 15.573 8.5C15.573 9.234 14.979 9.828 14.245 9.828ZM20.62 7.438H19.558V13.812H20.62C21.208 13.812 21.683 13.338 21.683 12.75V8.5C21.683 7.912 21.208 7.438 20.62 7.438Z" fill="#161826"/>
</svg>
