<svg width="24" height="20" viewBox="0 0 24 20" fill="none" xmlns="http://www.w3.org/2000/svg">
<path d="M1 1.99799V7.99799H7" stroke="#040402" stroke-width="2" stroke-linecap="round" stroke-linejoin="round"/>
<path d="M23 17.998V11.998H17" stroke="#040402" stroke-width="2" stroke-linecap="round" stroke-linejoin="round"/>
<path d="M20.49 6.99798C19.9828 5.56398 19.1209 4.283 17.9845 3.273C16.8482 2.263 15.4745 1.55698 13.9917 1.22198C12.5089 0.885977 10.9652 0.931996 9.5048 1.354C8.0444 1.777 6.7147 2.56199 5.64 3.63799L1 7.99798M23 11.998L18.36 16.358C17.2853 17.433 15.9556 18.218 14.4952 18.641C13.0348 19.063 11.4911 19.109 10.0083 18.773C8.5255 18.438 7.1518 17.732 6.0155 16.722C4.8791 15.712 4.0172 14.431 3.51 12.998" stroke="#040402" stroke-width="2" stroke-linecap="round" stroke-linejoin="round"/>
</svg>
