<svg width="22" height="13" viewBox="0 0 22 13" fill="none" xmlns="http://www.w3.org/2000/svg">
<path d="M6.28299 6.5C7.77599 6.5 8.991 5.28501 8.991 3.79201C8.991 2.29801 7.77599 1.08299 6.28299 1.08299C4.78899 1.08299 3.57401 2.29801 3.57401 3.79201C3.57401 5.28501 4.78899 6.5 6.28299 6.5ZM18.199 2.16701H10.616C10.317 2.16701 10.074 2.40899 10.074 2.70799V7.58299H2.491V0.542007C2.491 0.242007 2.24901 0 1.94901 0H0.865997C0.566997 0 0.324005 0.242007 0.324005 0.542007V12.458C0.324005 12.758 0.566997 13 0.865997 13H1.94901C2.24901 13 2.491 12.758 2.491 12.458V10.833H19.824V12.458C19.824 12.758 20.067 13 20.366 13H21.449C21.749 13 21.991 12.758 21.991 12.458V5.95799C21.991 3.86399 20.294 2.16701 18.199 2.16701Z" fill="#161826"/>
</svg>
