<svg width="18" height="17" viewBox="0 0 18 17" fill="none" xmlns="http://www.w3.org/2000/svg">
<path d="M7.29201 16C7.66901 16 7.974 15.68 7.974 15.286C7.974 14.891 7.66901 14.571 7.29201 14.571C6.91501 14.571 6.61 14.891 6.61 15.286C6.61 15.68 6.91501 16 7.29201 16Z" stroke="#909090" stroke-width="2" stroke-linecap="round" stroke-linejoin="round"/>
<path d="M14.792 16C15.169 16 15.474 15.68 15.474 15.286C15.474 14.891 15.169 14.571 14.792 14.571C14.415 14.571 14.11 14.891 14.11 15.286C14.11 15.68 14.415 16 14.792 16Z" stroke="#909090" stroke-width="2" stroke-linecap="round" stroke-linejoin="round"/>
<path d="M1.83701 1H4.565L6.392 10.564C6.454 10.893 6.62499 11.189 6.87399 11.399C7.12399 11.609 7.435 11.721 7.755 11.714H14.383C14.703 11.721 15.015 11.609 15.264 11.399C15.513 11.189 15.684 10.893 15.746 10.564L16.837 4.57098H5.246" stroke="#909090" stroke-width="2" stroke-linecap="round" stroke-linejoin="round"/>
</svg>
