<svg width="28" height="28" viewBox="0 0 28 28" fill="none" xmlns="http://www.w3.org/2000/svg">
<path d="M14 28C21.732 28 28 21.732 28 14C28 6.26801 21.732 0 14 0C6.26801 0 0 6.26801 0 14C0 21.732 6.26801 28 14 28Z" fill="#E5E9EF"/>
<path d="M19.253 10.666C18.966 10.392 18.625 10.174 18.249 10.025C17.874 9.87702 17.471 9.79999 17.065 9.79999C16.658 9.79999 16.256 9.87702 15.88 10.025C15.505 10.174 15.164 10.392 14.876 10.666L14.28 11.236L13.684 10.666C13.103 10.112 12.316 9.79999 11.495 9.79999C10.674 9.79999 9.88701 10.112 9.30701 10.666C8.72601 11.221 8.39999 11.973 8.39999 12.757C8.39999 13.542 8.72601 14.294 9.30701 14.848L9.90302 15.418L14.28 19.6L18.657 15.418L19.253 14.848C19.541 14.574 19.769 14.248 19.924 13.889C20.08 13.53 20.16 13.146 20.16 12.757C20.16 12.369 20.08 11.984 19.924 11.626C19.769 11.267 19.541 10.941 19.253 10.666Z" stroke="#545589" stroke-width="2" stroke-linecap="round" stroke-linejoin="round"/>
</svg>
